<svg width="36" height="36" viewBox="0 0 36 36" fill="none" xmlns="http://www.w3.org/2000/svg">
<path fill-rule="evenodd" clip-rule="evenodd" d="M31.3333 17.9189C31.3333 15.9024 29.6317 14.2678 27.5326 14.2678C25.4335 14.2678 23.7318 15.9024 23.7318 17.9189V27.5578C23.7318 29.5743 25.4335 31.2089 27.5326 31.2089C29.6317 31.2089 31.3333 29.5743 31.3333 27.5578V17.9189ZM25.8602 17.9189C25.8602 17.0316 26.609 16.3124 27.5326 16.3124C28.4562 16.3124 29.2049 17.0316 29.2049 17.9189V27.5578C29.2049 28.4451 28.4562 29.1643 27.5326 29.1643C26.609 29.1643 25.8602 28.4451 25.8602 27.5578V17.9189Z" fill="#22A362"/>
<path fill-rule="evenodd" clip-rule="evenodd" d="M4.72797 12.7424H24.682V28.4138C24.682 31.499 22.181 34 19.0958 34H10.3142C7.22899 34 4.72797 31.4989 4.72797 28.4138V12.7424ZM10.4291 20.9948C10.4291 20.47 10.8545 20.0446 11.3793 20.0446C11.9041 20.0446 12.3295 20.47 12.3295 20.9948V26.851C12.3295 27.3758 11.9041 27.8012 11.3793 27.8012C10.8545 27.8012 10.4291 27.3758 10.4291 26.851V20.9948ZM18.9808 20.0446C18.4561 20.0446 18.0306 20.47 18.0306 20.9948V26.851C18.0306 27.3758 18.4561 27.8012 18.9808 27.8012C19.5056 27.8012 19.931 27.3758 19.931 26.851V20.9948C19.931 20.47 19.5056 20.0446 18.9808 20.0446Z" fill="#34C07B"/>
<path fill-rule="evenodd" clip-rule="evenodd" d="M18.9809 34H11.3793V27.8012C11.9041 27.8012 12.3295 27.3799 12.3295 26.8601V20.9858C12.3295 20.466 11.9041 20.0446 11.3793 20.0446V13.2941H18.9809V20.0446C18.4561 20.0446 18.0307 20.466 18.0307 20.9858V26.8601C18.0307 27.3799 18.4561 27.8012 18.9809 27.8012V34Z" fill="#4ADF97"/>
<path fill-rule="evenodd" clip-rule="evenodd" d="M26.5824 9.8407C26.5824 7.71492 24.8153 5.99163 22.6354 5.99163C22.4844 5.99163 22.3354 5.9999 22.1889 6.01599C22.0507 3.77544 20.1436 2 17.8114 2C16.5016 2 15.326 2.55991 14.5224 3.44766C13.9601 3.07387 13.2806 2.85535 12.5488 2.85535C10.7774 2.85535 9.31267 4.13553 9.07431 5.79892C8.78041 5.73836 8.47566 5.70651 8.16327 5.70651C5.74123 5.70651 3.77777 7.62128 3.77777 9.98326C3.77777 12.3452 5.74123 14.26 8.16327 14.26C8.67491 14.26 9.52851 14.2346 10.5753 14.1944V17.3107C10.5753 18.0979 11.2134 18.736 12.0006 18.736C12.7877 18.736 13.4259 18.0979 13.4259 17.3107V14.0734C14.2833 14.0347 15.1741 13.9933 16.0518 13.9525C18.9502 13.8178 21.7045 13.6898 22.6354 13.6898C24.8153 13.6898 26.5824 11.9665 26.5824 9.8407Z" fill="#F1B314"/>
</svg>